<svg width="22" height="22" viewBox="0 0 22 22" fill="none" xmlns="http://www.w3.org/2000/svg">
<path d="M4.99417 21.3109V7.3974H0.278238V21.3109H4.99417ZM2.63682 5.49661C4.28134 5.49661 5.30499 4.42821 5.30499 3.09307C5.27435 1.72783 4.28141 0.689087 2.66802 0.689087C1.05489 0.689087 0 1.72785 0 3.09307C0 4.42827 1.02339 5.49661 2.60603 5.49661H2.63667H2.63682ZM7.60443 21.3109H12.3204V13.5409C12.3204 13.1251 12.351 12.7097 12.4755 12.4124C12.8165 11.5816 13.5924 10.7211 14.8952 10.7211C16.6017 10.7211 17.2844 11.997 17.2844 13.8674V21.3108H22V13.3329C22 9.05925 19.6734 7.07075 16.5706 7.07075C14.0266 7.07075 12.9095 8.46524 12.289 9.41502H12.3205V7.39711H7.60453C7.66642 8.70268 7.60453 21.3106 7.60453 21.3106L7.60443 21.3109Z" fill="#9F8447"/>
</svg>
